<svg width="512" height="512" viewBox="0 0 512 512" fill="none" xmlns="http://www.w3.org/2000/svg">
<path d="M106.025 239.008C55.8194 238.33 14.8326 279.317 15.5107 329.523C16.1803 377.672 55.386 416.878 103.536 417.548C153.75 418.234 194.728 377.248 194.042 327.042C193.381 278.884 154.175 239.678 106.025 239.008ZM160.282 379.458C160.111 379.643 159.902 379.788 159.668 379.883C159.435 379.977 159.184 380.02 158.932 380.007C158.681 379.994 158.435 379.925 158.213 379.807C157.991 379.688 157.798 379.522 157.647 379.321C153.808 374.298 149.107 369.998 143.763 366.621C132.836 359.608 118.991 355.746 104.78 355.746C90.5703 355.746 76.7249 359.608 65.7979 366.621C60.4541 369.996 55.7529 374.295 51.9139 379.316C51.7631 379.518 51.5697 379.684 51.3476 379.802C51.1255 379.921 50.88 379.989 50.6285 380.002C50.377 380.016 50.1257 379.973 49.8925 379.878C49.6592 379.783 49.4497 379.638 49.2787 379.454C36.6851 365.859 29.5514 348.095 29.2445 329.566C28.545 287.802 62.8151 252.845 104.596 252.742C146.377 252.639 180.316 286.566 180.316 328.278C180.331 347.254 173.175 365.534 160.282 379.458Z" fill="white"/>
<path d="M104.78 280.211C96.3168 280.211 88.6645 283.383 83.2267 289.146C77.789 294.91 75.0723 302.88 75.686 311.434C76.9306 328.279 89.982 342.013 104.78 342.013C119.578 342.013 132.604 328.279 133.874 311.438C134.51 302.966 131.814 295.069 126.286 289.198C120.827 283.404 113.188 280.211 104.78 280.211Z" fill="white"/>
<path d="M419.404 68.0864C369.199 67.4083 328.212 108.395 328.89 158.601C329.559 206.751 368.765 245.956 416.915 246.626C467.129 247.313 508.107 206.326 507.421 156.12C506.76 107.962 467.554 68.7559 419.404 68.0864ZM473.661 208.536C473.49 208.721 473.281 208.866 473.048 208.961C472.814 209.056 472.563 209.098 472.312 209.085C472.06 209.072 471.815 209.003 471.592 208.885C471.37 208.766 471.177 208.6 471.026 208.399C467.187 203.376 462.486 199.076 457.142 195.699C446.215 188.686 432.37 184.824 418.16 184.824C403.949 184.824 390.104 188.686 379.177 195.699C373.833 199.075 369.132 203.373 365.293 208.394C365.142 208.596 364.949 208.762 364.727 208.881C364.505 208.999 364.259 209.067 364.008 209.081C363.756 209.094 363.505 209.051 363.272 208.956C363.038 208.862 362.829 208.717 362.658 208.532C350.064 194.937 342.931 177.173 342.624 158.644C341.924 116.88 376.194 81.9232 417.975 81.8202C459.756 81.7172 493.695 115.644 493.695 157.356C493.71 176.332 486.554 194.613 473.661 208.536Z" fill="white"/>
<path d="M418.159 109.289C409.696 109.289 402.044 112.461 396.606 118.225C391.168 123.989 388.451 131.958 389.065 140.512C390.31 157.357 403.361 171.091 418.159 171.091C432.958 171.091 445.983 157.357 447.254 140.516C447.889 132.044 445.193 124.147 439.666 118.276C434.206 112.482 426.567 109.289 418.159 109.289Z" fill="white"/>
<path d="M189.059 307.445L355.649 209.942" stroke="white" stroke-width="9" stroke-linecap="round"/>
<path d="M328.882 389.83L397.826 246.078" stroke="white" stroke-width="9" stroke-linecap="round"/>
<path d="M74.5918 250.316L45.2607 149.725" stroke="white" stroke-width="9" stroke-linecap="round"/>
<path d="M338.316 131.613L281.741 100.515" stroke="white" stroke-width="9" stroke-linecap="round"/>
<circle cx="39.1341" cy="115.593" r="30.1341" stroke="white" stroke-width="8"/>
<circle cx="315.055" cy="416.945" r="30.1341" transform="rotate(61.0132 315.055 416.945)" stroke="white" stroke-width="8"/>
<circle cx="254.609" cy="82.1341" r="30.1341" stroke="white" stroke-width="8"/>
</svg>
