<svg width="512" height="512" viewBox="0 0 512 512" fill="none" xmlns="http://www.w3.org/2000/svg">
<g clip-path="url(#clip0_2543_508)">
<rect width="512" height="512" fill="#1E75EB"/>
<g filter="url(#filter0_d_2543_508)">
<path d="M-6.5582 -4.58486L276.035 -1.95042L-62.4802 272.432L-6.5582 -4.58486Z" fill="#0054C6"/>
</g>
<path d="M74.3697 60.1602V91.1182H49.4902L74.3697 60.1602Z" fill="white"/>
<path d="M74.3697 48.9922C74.3697 52.4039 73.0591 55.6759 70.7262 58.0883C68.3933 60.5007 65.2292 61.856 61.93 61.856C58.6308 61.856 55.4667 60.5007 53.1338 58.0883C50.8008 55.6759 49.4902 52.4039 49.4902 48.9922H74.3697V48.9922Z" fill="white"/>
<path d="M78.469 91.1177C78.469 87.706 79.7871 84.4341 82.1332 82.0216C84.4794 79.6092 87.6615 78.2539 90.9794 78.2539C94.2974 78.2539 97.4795 79.6092 99.8256 82.0216C102.172 84.4341 103.49 87.706 103.49 91.1177H78.469Z" fill="white"/>
<path d="M78.469 79.9502V48.9922H103.49L78.469 79.9502Z" fill="white"/>
</g>
<path d="M153.485 277.719C115.972 277.212 85.3469 307.837 85.8536 345.35C86.3539 381.327 115.648 410.621 151.625 411.121C189.144 411.634 219.763 381.01 219.249 343.497C218.756 307.513 189.462 278.219 153.485 277.719ZM194.025 382.661C193.897 382.799 193.741 382.908 193.566 382.978C193.392 383.049 193.204 383.081 193.016 383.071C192.828 383.061 192.645 383.01 192.479 382.922C192.313 382.833 192.169 382.709 192.056 382.559C189.188 378.806 185.675 375.593 181.682 373.07C173.517 367.83 163.172 364.944 152.555 364.944C141.937 364.944 131.592 367.83 123.428 373.07C119.435 375.592 115.922 378.804 113.054 382.555C112.941 382.706 112.796 382.83 112.63 382.919C112.464 383.007 112.281 383.058 112.093 383.068C111.905 383.078 111.717 383.046 111.543 382.975C111.369 382.904 111.212 382.796 111.085 382.658C101.675 372.5 96.3446 359.227 96.1153 345.382C95.5926 314.177 121.199 288.058 152.417 287.981C183.635 287.904 208.994 313.253 208.994 344.42C209.005 358.599 203.658 372.258 194.025 382.661Z" fill="white"/>
<path d="M152.555 308.506C146.231 308.506 140.513 310.876 136.45 315.182C132.387 319.489 130.357 325.444 130.816 331.835C131.746 344.422 141.498 354.684 152.555 354.684C163.612 354.684 173.344 344.422 174.294 331.838C174.768 325.508 172.754 319.608 168.624 315.221C164.545 310.892 158.837 308.506 152.555 308.506Z" fill="white"/>
<path d="M387.637 150.006C350.124 149.5 319.5 180.124 320.006 217.637C320.506 253.614 349.8 282.908 385.777 283.408C423.297 283.922 453.915 253.297 453.402 215.784C452.908 179.8 423.614 150.506 387.637 150.006ZM428.177 254.948C428.05 255.086 427.893 255.195 427.719 255.266C427.545 255.336 427.357 255.368 427.169 255.358C426.981 255.349 426.798 255.298 426.632 255.209C426.466 255.12 426.321 254.996 426.208 254.846C423.34 251.093 419.828 247.88 415.835 245.357C407.67 240.117 397.325 237.231 386.707 237.231C376.09 237.231 365.745 240.117 357.58 245.357C353.587 247.879 350.075 251.091 347.206 254.842C347.093 254.993 346.949 255.117 346.783 255.206C346.617 255.294 346.434 255.345 346.246 255.355C346.058 255.365 345.87 255.333 345.696 255.262C345.521 255.192 345.365 255.083 345.237 254.945C335.827 244.787 330.497 231.514 330.268 217.669C329.745 186.464 355.351 160.345 386.569 160.268C417.787 160.191 443.147 185.541 443.147 216.707C443.157 230.886 437.811 244.545 428.177 254.948Z" fill="white"/>
<path d="M386.707 180.793C380.383 180.793 374.666 183.163 370.603 187.469C366.54 191.776 364.51 197.731 364.968 204.122C365.898 216.709 375.65 226.971 386.707 226.971C397.764 226.971 407.497 216.709 408.446 204.126C408.921 197.795 406.907 191.895 402.776 187.508C398.697 183.179 392.989 180.793 386.707 180.793Z" fill="white"/>
<path d="M215.526 328.854L340 256" stroke="white" stroke-width="9" stroke-linecap="round"/>
<path d="M320 390.41L371.515 283" stroke="white" stroke-width="9" stroke-linecap="round"/>
<path d="M129.998 286.168L108.082 211.007" stroke="white" stroke-width="9" stroke-linecap="round"/>
<path d="M327.05 197.475L284.777 174.238" stroke="white" stroke-width="9" stroke-linecap="round"/>
<circle cx="103.505" cy="185.505" r="21.5045" stroke="white" stroke-width="8"/>
<circle cx="309.669" cy="410.669" r="21.5045" transform="rotate(61.0132 309.669 410.669)" stroke="white" stroke-width="8"/>
<circle cx="264.505" cy="160.505" r="21.5045" stroke="white" stroke-width="8"/>
<defs>
<filter id="filter0_d_2543_508" x="-87.4802" y="-29.584" width="388.515" height="327.016" filterUnits="userSpaceOnUse" color-interpolation-filters="sRGB">
<feFlood flood-opacity="0" result="BackgroundImageFix"/>
<feColorMatrix in="SourceAlpha" type="matrix" values="0 0 0 0 0 0 0 0 0 0 0 0 0 0 0 0 0 0 127 0" result="hardAlpha"/>
<feOffset/>
<feGaussianBlur stdDeviation="12.5"/>
<feColorMatrix type="matrix" values="0 0 0 0 0 0 0 0 0 0 0 0 0 0 0 0 0 0 0.25 0"/>
<feBlend mode="normal" in2="BackgroundImageFix" result="effect1_dropShadow_2543_508"/>
<feBlend mode="normal" in="SourceGraphic" in2="effect1_dropShadow_2543_508" result="shape"/>
</filter>
<clipPath id="clip0_2543_508">
<rect width="512" height="512" fill="white"/>
</clipPath>
</defs>
</svg>
